<!DOCTYPE svg PUBLIC "-//W3C//DTD SVG 1.1//EN"
 "http://www.w3.org/Graphics/SVG/1.1/DTD/svg11.dtd">
<svg version="1.1"
 width="600px" height="78px"
 viewBox="0 0 600 78"
 xmlns="http://www.w3.org/2000/svg" shape-rendering="crispEdges"
 stroke-width="1" text-rendering="geometricPrecision">
<polygon fill="white" points="145,7 153,7 153,16 145,16"/>
<text x="150" y="16" textLength="7" font-family="Helvetica" font-size="12" fill="black" text-anchor="middle">

a
</text>
<polygon fill="white" points="445,7 453,7 453,16 445,16"/>
<text x="450" y="16" textLength="7" font-family="Helvetica" font-size="12" fill="black" text-anchor="middle">

b
</text>
<line x1="150" y1="22" x2="150" y2="50" stroke="black"/>
<line x1="450" y1="22" x2="450" y2="50" stroke="black"/>
<line x1="150" y1="33" x2="450" y2="61" stroke="black"/>
<line x1="450" y1="61" x2="440" y2="67" stroke="black"/>
<line x1="440" y1="55" x2="450" y2="61" stroke="black"/>
<line x1="150" y1="50" x2="150" y2="78" stroke="black"/>
<line x1="450" y1="50" x2="450" y2="78" stroke="black"/>
<path d="M 450 55 A150,6 0 0,1 450,67" stroke="black" fill="none"/><polygon fill="black" points="450,67 460,73 460,61"/>
<line x1="150" y1="72" x2="150" y2="78" stroke="black"/>
<line x1="450" y1="72" x2="450" y2="78" stroke="black"/>
</svg>
